# Blender 4.2.3 LTS
# www.blender.org
mtllib waterwheel_generator.mtl
o base
v 0.000000 0.000000 1.000000
v 0.000000 0.000000 0.000000
v 0.000000 0.062500 -0.000000
v 0.000000 0.062500 1.000000
v 1.000000 0.000000 0.000000
v 1.000000 0.062500 -0.000000
v 1.000000 0.000000 1.000000
v 1.000000 0.062500 1.000000
v 0.636724 0.034864 0.221242
v 0.636724 0.034864 0.158742
v 0.501529 0.459093 0.158742
v 0.501529 0.459093 0.221242
v 0.696165 0.054178 0.158742
v 0.560971 0.478407 0.158742
v 0.696165 0.054178 0.221242
v 0.560971 0.478407 0.221242
v 0.303835 0.054178 0.221242
v 0.303835 0.054178 0.158742
v 0.439029 0.478407 0.158742
v 0.439029 0.478407 0.221242
v 0.363276 0.034864 0.158742
v 0.498471 0.459093 0.158742
v 0.363276 0.034864 0.221242
v 0.498471 0.459093 0.221242
v 0.636724 0.034864 0.663974
v 0.636724 0.034864 0.601474
v 0.501529 0.459093 0.601474
v 0.501529 0.459093 0.663974
v 0.696165 0.054178 0.601474
v 0.560971 0.478407 0.601474
v 0.696165 0.054178 0.663974
v 0.560971 0.478407 0.663974
v 0.303835 0.054178 0.663974
v 0.303835 0.054178 0.601474
v 0.439029 0.478407 0.601474
v 0.439029 0.478407 0.663974
v 0.363276 0.034864 0.601474
v 0.498471 0.459093 0.601474
v 0.363276 0.034864 0.663974
v 0.498471 0.459093 0.663974
v 0.343750 0.343750 1.005003
v 0.343750 0.343750 0.683890
v 0.343750 0.656250 0.683890
v 0.343750 0.656250 1.005003
v 0.656250 0.343750 0.683890
v 0.656250 0.656250 0.683890
v 0.656250 0.343750 1.005003
v 0.656250 0.656250 1.005003
v 0.415254 0.343279 0.928511
v 0.415254 0.343279 0.759019
v 0.584746 0.343279 0.759019
v 0.584746 0.343279 0.928511
v 0.415254 0.064929 0.928511
v 0.415254 0.064929 0.759019
v 0.584746 0.064929 0.759019
v 0.584746 0.064929 0.928511
vn -1.0000 -0.0000 -0.0000
vn -0.0000 -0.0000 -1.0000
vn 1.0000 -0.0000 -0.0000
vn -0.0000 -0.0000 1.0000
vn -0.0000 -1.0000 -0.0000
vn -0.0000 1.0000 -0.0000
vn -0.9528 -0.3036 -0.0000
vn 0.9528 0.3036 -0.0000
vn 0.3090 -0.9511 -0.0000
vn -0.3090 0.9511 -0.0000
vn -0.9528 0.3036 -0.0000
vn 0.9528 -0.3036 -0.0000
vn -0.3090 -0.9511 -0.0000
vn 0.3090 0.9511 -0.0000
vn -0.0000 -1.0000 0.0062
vn 0.0066 -1.0000 -0.0000
vn -0.0000 -1.0000 -0.0063
vn -0.0066 -1.0000 -0.0000
vt 0.005093 0.012807
vt 0.005093 0.985359
vt 0.313425 0.985359
vt 0.313425 0.012807
vt 0.842290 0.689543
vt 0.898796 0.771158
vt 0.898796 0.689543
vt 0.842290 0.771158
vt 0.923640 0.771158
vt 0.867134 0.771158
vt 0.923640 0.689543
vt 0.816168 0.689543
vt 0.759662 0.771158
vt 0.759662 0.689543
vt 0.841012 0.771158
vt 0.784506 0.771158
vt 0.784506 0.689543
vt 0.841012 0.689543
vt 0.816168 0.771158
vt 0.842290 0.264465
vt 0.898796 0.346080
vt 0.898796 0.264464
vt 0.842290 0.346080
vt 0.923640 0.346080
vt 0.867134 0.346080
vt 0.923640 0.264464
vt 0.816168 0.264465
vt 0.759662 0.346080
vt 0.759662 0.264464
vt 0.841012 0.346080
vt 0.784506 0.346080
vt 0.784506 0.264464
vt 0.841012 0.264465
vt 0.816168 0.346080
vt 0.656698 0.009257
vt 0.342889 0.990666
vt 0.342889 0.009257
vt 0.690726 0.992455
vt 0.924859 0.760223
vt 0.994327 0.992455
vt 0.867134 0.689543
vt 0.867134 0.264465
vt 0.924859 0.245643
vt 0.994327 0.017548
vt 0.995010 0.012789
vt 0.683244 0.990177
vt 0.683244 0.012789
vt 0.690726 0.017548
vt 0.760194 0.245643
vt 0.760194 0.760223
vt 0.656698 0.990666
vt 0.995010 0.990177
s 0
usemtl Material
f 4/1/1 2/2/1 1/1/1
f 3/2/2 5/3/2 2/2/2
f 6/3/3 7/4/3 5/3/3
f 8/4/4 1/1/4 7/4/4
f 2/2/5 7/4/5 1/1/5
f 4/1/6 6/3/6 3/2/6
f 4/1/1 3/2/1 2/2/1
f 3/2/2 6/3/2 5/3/2
f 6/3/3 8/4/3 7/4/3
f 8/4/4 4/1/4 1/1/4
f 2/2/5 5/3/5 7/4/5
f 4/1/6 8/4/6 6/3/6
f 12/5/7 10/6/7 9/7/7
f 11/8/2 13/9/2 10/6/2
f 14/10/8 15/11/8 13/9/8
f 15/11/4 12/5/4 9/7/4
f 10/6/9 15/11/9 9/7/9
f 12/5/10 14/10/10 11/8/10
f 20/12/11 18/13/11 17/14/11
f 18/13/2 22/15/2 21/16/2
f 22/15/12 23/17/12 21/16/12
f 24/18/4 17/14/4 23/17/4
f 18/13/13 23/17/13 17/14/13
f 20/12/14 22/15/14 19/19/14
f 28/20/7 26/21/7 25/22/7
f 27/23/2 29/24/2 26/21/2
f 30/25/8 31/26/8 29/24/8
f 31/26/4 28/20/4 25/22/4
f 26/21/9 31/26/9 25/22/9
f 28/20/10 30/25/10 27/23/10
f 36/27/11 34/28/11 33/29/11
f 34/28/2 38/30/2 37/31/2
f 38/30/12 39/32/12 37/31/12
f 40/33/4 33/29/4 39/32/4
f 34/28/13 39/32/13 33/29/13
f 36/27/14 38/30/14 35/34/14
f 46/35/2 42/36/2 43/37/2
f 48/35/3 45/36/3 46/37/3
f 44/35/4 47/36/4 48/37/4
f 48/35/6 43/36/6 44/37/6
f 41/38/15 52/39/15 47/40/15
f 12/5/7 11/8/7 10/6/7
f 11/8/2 14/10/2 13/9/2
f 14/10/8 16/41/8 15/11/8
f 15/11/4 16/41/4 12/5/4
f 10/6/9 13/9/9 15/11/9
f 12/5/10 16/41/10 14/10/10
f 20/12/11 19/19/11 18/13/11
f 18/13/2 19/19/2 22/15/2
f 22/15/12 24/18/12 23/17/12
f 24/18/4 20/12/4 17/14/4
f 18/13/13 21/16/13 23/17/13
f 20/12/14 24/18/14 22/15/14
f 28/20/7 27/23/7 26/21/7
f 27/23/2 30/25/2 29/24/2
f 30/25/8 32/42/8 31/26/8
f 31/26/4 32/42/4 28/20/4
f 26/21/9 29/24/9 31/26/9
f 28/20/10 32/42/10 30/25/10
f 36/27/11 35/34/11 34/28/11
f 34/28/2 35/34/2 38/30/2
f 38/30/12 40/33/12 39/32/12
f 40/33/4 36/27/4 33/29/4
f 34/28/13 37/31/13 39/32/13
f 36/27/14 40/33/14 38/30/14
f 47/40/16 51/43/16 45/44/16
f 53/45/4 52/46/4 49/47/4
f 56/45/3 51/46/3 52/47/3
f 42/48/17 51/43/17 50/49/17
f 41/38/18 50/49/18 49/50/18
f 54/45/1 49/46/1 50/47/1
f 41/38/15 49/50/15 52/39/15
f 47/40/16 52/39/16 51/43/16
f 42/48/17 45/44/17 51/43/17
f 41/38/18 42/48/18 50/49/18
f 55/45/2 50/46/2 51/47/2
f 43/35/1 41/36/1 44/37/1
f 46/35/2 45/51/2 42/36/2
f 48/35/3 47/51/3 45/36/3
f 44/35/4 41/51/4 47/36/4
f 48/35/6 46/51/6 43/36/6
f 53/45/4 56/52/4 52/46/4
f 56/45/3 55/52/3 51/46/3
f 54/45/1 53/52/1 49/46/1
f 55/45/2 54/52/2 50/46/2
f 43/35/1 42/51/1 41/36/1
